<?xml version="1.0" encoding="UTF-8"?>
<svg width="50px" height="100px" viewBox="0 0 50 100" version="1.1" xmlns="http://www.w3.org/2000/svg" xmlns:xlink="http://www.w3.org/1999/xlink">
    <title>logo-digitale-overheid</title>
    <g id="Symbols" stroke="none" stroke-width="1" fill="none" fill-rule="evenodd">
        <g id="logo-digitale-overheid" fill-rule="nonzero">
            <g id="Laag_1_1_">
                <g id="Group" fill="#154273">
                    <rect id="Rectangle" x="0" y="0" width="50" height="100"></rect>
                </g>
                <path d="M25.9,77.36 L25.03,77.36 L25.03,74.95 L25.9,74.95 L25.9,77.36 Z M29.83,66.72 L28.96,66.72 L28.96,64.31 L29.83,64.31 L29.83,66.72 Z M13.71,62.56 C13.64,62.56 13.19,62.56 13.19,62.65 C13.19,62.74 13.4,62.7 13.71,62.75 C14.41,62.87 14.68,63.22 15.17,63.22 C15.61,63.22 16.07,62.92 15.89,62.28 C15.86,62.17 15.8,62.2 15.78,62.27 C15.71,62.56 15.36,62.72 14.99,62.72 C14.53,62.72 14.44,62.56 13.71,62.56 Z M8.92,64.97 C9,65.08 9.82,66.14 8.56,66.55 C8.5,66.57 8.49,66.62 8.57,66.66 C9.5,67.05 9.95,66.33 9.95,66.33 C10.42,67.41 9.7,68 9.7,68 C9.8,68.19 10.25,68.52 10.92,68.67 C11.18,68.53 11.54,68.27 11.69,67.87 C11.69,67.87 11.87,68.34 11.71,68.79 C13.61,68.96 14.28,67.44 15.75,67.72 C15.79,67.73 15.81,67.7 15.81,67.66 C15.81,66.72 15.24,65.01 13.42,64.66 C11.61,64.31 12.1,63.57 12.1,63.57 C12.86,63.54 13.3,63.87 13.3,63.87 C13.44,63.64 13.24,63.4 13.24,63.4 C13.31,63.31 13.35,63 13.35,63 C12.49,63 12.27,62.81 12.27,62.81 C12.14,62.3 12.49,61.58 13.77,62.35 C14.09,62.07 14.06,61.63 14.06,61.63 C14.16,61.58 14.22,61.43 14.22,61.37 C14.22,61.16 13.2,60.59 12.94,60.52 C12.88,60.21 12.48,59.77 11.28,59.93 C10.71,60 10.3,59.85 10.49,59.52 C10.52,59.46 10.42,59.45 10.37,59.51 C10.24,59.64 10.06,60.01 10.55,60.26 C11.1,60.54 11.13,61.09 11.14,61.17 C11.15,61.29 11.01,61.3 10.98,61.18 C10.73,60.25 9.45,60.05 8.7,60.54 C8.74,61.04 9.28,61.37 9.57,61.37 C9.74,61.37 9.97,61.2 9.97,60.97 C9.97,60.86 10.03,60.87 10.06,60.96 C10.18,61.29 9.69,61.98 8.97,61.56 C8.23,62.3 8.53,63.22 8.6,63.55 C8.73,64.15 8.44,64.74 7.89,64.47 C7.86,64.46 7.83,64.45 7.83,64.51 C7.84,64.87 8.33,65.3 8.92,64.97 Z M13,61.24 C12.65,61.63 12.09,61.54 11.95,60.9 C12.67,60.86 12.97,60.93 13,61.24 Z M35.07,62.72 C34.7,62.72 34.35,62.56 34.28,62.27 C34.26,62.2 34.2,62.17 34.17,62.28 C33.99,62.92 34.45,63.22 34.89,63.22 C35.38,63.22 35.65,62.87 36.35,62.75 C36.66,62.7 36.87,62.75 36.87,62.65 C36.87,62.56 36.42,62.56 36.35,62.56 C35.63,62.56 35.53,62.72 35.07,62.72 Z M42.23,64.49 C42.23,64.43 42.2,64.44 42.17,64.45 C41.62,64.72 41.33,64.14 41.46,63.53 C41.53,63.19 41.83,62.28 41.09,61.54 C40.36,61.96 39.87,61.27 40,60.94 C40.03,60.85 40.09,60.84 40.09,60.95 C40.09,61.18 40.32,61.35 40.49,61.35 C40.78,61.35 41.32,61.02 41.36,60.52 C40.61,60.03 39.33,60.23 39.08,61.16 C39.05,61.28 38.91,61.27 38.92,61.15 C38.92,61.07 38.96,60.52 39.51,60.24 C40.01,59.99 39.83,59.62 39.69,59.49 C39.64,59.44 39.53,59.45 39.57,59.5 C39.76,59.83 39.35,59.98 38.79,59.91 C37.59,59.75 37.2,60.2 37.13,60.5 C36.87,60.57 35.85,61.14 35.85,61.35 C35.85,61.41 35.91,61.57 36.01,61.61 C36.01,61.61 35.99,62.04 36.3,62.33 C37.57,61.56 37.93,62.28 37.8,62.79 C37.8,62.79 37.57,62.97 36.71,62.98 C36.71,62.98 36.75,63.29 36.82,63.38 C36.82,63.38 36.62,63.63 36.76,63.85 C36.76,63.85 37.2,63.52 37.96,63.55 C37.96,63.55 38.45,64.29 36.64,64.64 C34.83,64.99 34.25,66.7 34.25,67.64 C34.25,67.69 34.27,67.71 34.31,67.7 C35.78,67.43 36.45,68.95 38.35,68.77 C38.18,68.32 38.37,67.85 38.37,67.85 C38.52,68.25 38.88,68.52 39.14,68.65 C39.82,68.5 40.26,68.18 40.36,67.98 C40.36,67.98 39.64,67.39 40.11,66.31 C40.11,66.31 40.56,67.03 41.49,66.64 C41.57,66.6 41.55,66.55 41.5,66.53 C40.24,66.12 41.06,65.06 41.14,64.95 C41.73,65.3 42.23,64.87 42.23,64.49 Z M38.11,60.9 C37.97,61.54 37.41,61.63 37.06,61.24 C37.09,60.93 37.4,60.86 38.11,60.9 Z M24.7,50.21 C24.7,50.37 24.77,50.51 24.82,50.59 C24.93,50.75 24.91,50.84 24.86,50.89 C24.81,50.94 24.72,50.96 24.56,50.85 C24.48,50.79 24.34,50.73 24.18,50.73 C23.91,50.73 23.77,50.91 23.77,51.06 C23.77,51.21 23.91,51.39 24.18,51.39 C24.34,51.39 24.48,51.32 24.56,51.27 C24.72,51.16 24.81,51.18 24.86,51.23 C24.91,51.28 24.84,51.83 24.77,52.27 C24.32,52.37 24.1,52.73 24.1,52.94 C24.1,53.49 24.68,53.8 25.03,53.99 C25.37,53.81 25.96,53.49 25.96,52.94 C25.96,52.73 25.74,52.36 25.29,52.27 C25.23,51.84 25.15,51.28 25.2,51.23 C25.25,51.18 25.34,51.16 25.5,51.27 C25.58,51.33 25.72,51.39 25.88,51.39 C26.15,51.39 26.29,51.21 26.29,51.06 C26.29,50.91 26.15,50.73 25.88,50.73 C25.72,50.73 25.58,50.8 25.5,50.85 C25.34,50.96 25.25,50.94 25.2,50.89 C25.15,50.84 25.13,50.75 25.24,50.59 C25.3,50.51 25.36,50.37 25.36,50.21 C25.36,49.94 25.18,49.8 25.03,49.8 C24.88,49.8 24.7,49.94 24.7,50.21 Z M25.03,54.27 C24.66,54.27 24.36,54.57 24.36,54.94 C24.36,55.31 24.66,55.61 25.03,55.61 C25.4,55.61 25.7,55.31 25.7,54.94 C25.7,54.57 25.4,54.27 25.03,54.27 Z M25.03,60.68 C27.7,60.68 29.2,61.19 29.2,61.19 C29.21,59.84 29.21,59.09 29.98,59.2 C29.56,58.07 31.38,57.62 31.38,56.15 C31.38,55.18 30.69,55.07 30.49,55.07 C29.89,55.07 29.98,55.46 29.47,55.46 C29.41,55.46 29.34,55.44 29.34,55.49 C29.34,55.66 29.48,55.95 29.72,55.95 C30.04,55.95 30.04,55.63 30.28,55.63 C30.38,55.63 30.53,55.71 30.53,56.04 C30.53,56.67 30.12,57.36 29.63,57.9 C29.52,57.75 29.37,57.65 29.18,57.65 C28.89,57.65 28.64,57.95 28.64,58.32 C28.64,58.46 28.66,58.56 28.71,58.67 C28.55,58.76 28.4,58.81 28.3,58.81 C28.08,58.81 27.75,58.72 27.75,58.24 C27.75,57.17 29.18,56.23 29.18,54.87 C29.18,54.22 28.75,53.58 27.84,53.58 C26.87,53.58 27.05,54.46 26.21,54.46 C26.17,54.46 26.14,54.47 26.14,54.51 C26.14,54.57 26.29,55.06 26.72,55.06 C27.18,55.06 27.31,54.26 27.73,54.26 C27.88,54.26 28.11,54.35 28.11,54.89 C28.11,55.31 27.9,56 27.6,56.65 C27.49,56.54 27.34,56.46 27.18,56.46 C26.82,56.46 26.56,56.81 26.56,57.22 C26.56,57.48 26.66,57.74 26.84,57.9 C26.63,58.17 26.41,58.39 26.12,58.39 C25.54,58.39 25.29,58.06 25.29,57.7 C25.29,57.31 26,57.17 26,56.57 C26,56.16 25.73,55.93 25.48,55.93 C25.2,55.93 25.06,56.11 25.03,56.11 C25,56.11 24.86,55.93 24.58,55.93 C24.32,55.93 24.06,56.16 24.06,56.57 C24.06,57.17 24.77,57.32 24.77,57.7 C24.77,58.06 24.51,58.39 23.94,58.39 C23.65,58.39 23.43,58.17 23.22,57.9 C23.4,57.73 23.5,57.48 23.5,57.22 C23.5,56.8 23.24,56.46 22.88,56.46 C22.71,56.46 22.57,56.54 22.46,56.65 C22.16,55.99 21.95,55.31 21.95,54.89 C21.95,54.35 22.18,54.26 22.33,54.26 C22.74,54.26 22.87,55.06 23.34,55.06 C23.77,55.06 23.92,54.57 23.92,54.51 C23.92,54.48 23.89,54.46 23.85,54.46 C23.01,54.46 23.19,53.58 22.22,53.58 C21.32,53.58 20.88,54.22 20.88,54.87 C20.88,56.23 22.31,57.17 22.31,58.24 C22.31,58.72 21.98,58.81 21.76,58.81 C21.65,58.81 21.51,58.76 21.35,58.67 C21.4,58.55 21.42,58.46 21.42,58.32 C21.42,57.95 21.17,57.65 20.88,57.65 C20.7,57.65 20.55,57.75 20.44,57.9 C19.95,57.36 19.54,56.67 19.54,56.04 C19.54,55.72 19.69,55.63 19.79,55.63 C20.02,55.63 20.03,55.95 20.35,55.95 C20.59,55.95 20.73,55.66 20.73,55.49 C20.73,55.44 20.66,55.46 20.6,55.46 C20.09,55.46 20.18,55.07 19.58,55.07 C19.38,55.07 18.69,55.18 18.69,56.15 C18.69,57.63 20.51,58.07 20.09,59.2 C20.86,59.09 20.85,59.84 20.87,61.19 C20.86,61.19 22.36,60.68 25.03,60.68 Z M20.14,62.67 C19.41,62.83 18.89,62.98 18.66,63.05 C18.67,62.73 18.79,62.43 19.08,62.37 C19.12,62.36 19.13,62.31 19.09,62.29 C18.44,61.86 18.1,62.68 18.09,62.71 C17.86,62.69 17.51,62.76 17.51,63.07 C17.51,64 15.39,64.51 14.9,64.59 C15.77,64.92 16.13,66.02 16.13,66.02 C16.76,65.39 17.49,64.84 17.66,64.84 C17.83,64.84 17.89,65.05 17.9,65.17 C17.9,65.21 17.94,65.22 17.97,65.19 C18.3,64.7 18.14,64.59 18.11,64.44 C18.09,64.33 18.12,63.9 18.6,63.95 L18.6,70.14 L18.35,70.19 C18.24,70.21 17.33,69.44 16.3,68.72 C15.26,68 14.71,68.43 13.53,69.07 C11.98,69.91 10.42,69.15 10.42,69.15 C9.09,70.1 8.63,72.86 8.63,72.86 C8.36,72.97 7.92,73.09 7.51,73.09 C6.49,73.09 6.31,72.47 6.31,72.11 C6.31,70.54 8.28,69.87 8.28,68.32 C8.28,67.94 8.11,66.42 6.22,66.42 C5.98,66.42 4.54,66.42 4.53,66.42 C3.82,66.42 3.65,65.91 3.55,65.72 C3.51,65.64 3.44,65.69 3.47,65.75 C3.52,65.88 3.39,66.08 3.39,66.47 C3.39,67.1 3.76,67.48 4.45,67.48 C4.76,67.48 5.06,67.39 5.15,67.33 C5.21,67.29 5.25,67.35 5.22,67.39 C4.92,67.74 4.9,68.4 5.02,68.55 C5.05,68.59 5.09,68.58 5.09,68.55 C5.26,67.89 5.88,67.26 6.72,67.26 C7.75,67.26 7.74,68.13 7.74,68.34 C7.74,69.6 5.53,70.52 5.53,72.26 C5.53,74.02 7.39,74.39 8.46,74.12 C8.4,75.88 6.38,76.48 6.32,75.22 C6.32,75.16 6.27,75.15 6.24,75.23 C5.99,75.85 6.09,76.4 6.87,76.57 C6.92,76.58 6.9,76.61 6.85,76.65 C6.07,77.14 6.49,79.08 6.53,79.65 C6.59,80.47 5.77,80.37 5.7,80.35 C5.67,80.34 5.63,80.35 5.69,80.42 C6.27,81.13 6.99,80.48 6.99,80.48 C7.53,80.65 7.2,81.11 6.83,81.35 C6.77,81.39 6.78,81.43 6.84,81.43 C6.92,81.44 7.76,81.51 7.91,80.84 C8.28,81.28 8.83,81.12 8.94,81.06 C9.1,80.98 9.89,80.69 9.96,81.57 C9.96,81.63 10,81.59 10.03,81.56 C10.62,80.81 9.99,80.35 9.63,80.3 C9.66,80.26 10.13,79.86 10.56,80.41 C10.59,80.45 10.62,80.46 10.62,80.38 C10.67,79.43 9.9,79.35 9.4,79.76 C9.38,79.66 9.21,79.13 9.96,79.15 C9.98,79.15 10.01,79.12 9.98,79.09 C9.4,78.47 8.92,79.03 8.8,79.17 C8.54,79.48 7.89,79.35 7.83,79.35 C8.03,76.06 10.93,77.23 11.33,75.63 C11.35,75.55 11.39,75.58 11.39,75.61 C11.5,76 12.48,76.05 12.66,75.29 C12.67,75.24 12.66,75.21 12.63,75.24 C11.79,76.08 9.9,73.46 12.48,71.33 C14.68,69.52 16.65,70.53 17.4,71.12 C17.44,71.38 17.28,71.47 17.18,71.5 C17.14,71.51 17.13,71.54 17.19,71.57 C17.4,71.65 17.69,71.62 17.83,71.43 C18.3,71.76 17.9,72.18 17.71,72.29 C17.66,72.32 17.68,72.35 17.72,72.36 C18.15,72.44 18.51,72 18.53,71.74 L18.6,71.78 L18.6,73.65 C18.6,76.31 21.67,76.68 25.04,78.93 C28.41,76.67 31.47,76.31 31.47,73.65 L31.47,71.78 L31.54,71.74 C31.56,71.99 31.91,72.44 32.35,72.36 C32.39,72.35 32.41,72.32 32.36,72.29 C32.17,72.17 31.76,71.76 32.24,71.43 C32.38,71.63 32.67,71.65 32.88,71.57 C32.94,71.55 32.93,71.51 32.89,71.5 C32.79,71.47 32.63,71.38 32.67,71.12 C33.42,70.52 35.39,69.51 37.59,71.33 C40.17,73.46 38.28,76.07 37.44,75.24 C37.4,75.2 37.4,75.24 37.41,75.29 C37.59,76.06 38.57,76 38.68,75.61 C38.69,75.58 38.73,75.55 38.74,75.63 C39.14,77.23 42.03,76.06 42.24,79.35 C42.18,79.36 41.53,79.48 41.27,79.17 C41.16,79.04 40.68,78.47 40.09,79.09 C40.05,79.13 40.09,79.15 40.11,79.15 C40.86,79.13 40.7,79.66 40.67,79.76 C40.17,79.35 39.4,79.43 39.45,80.38 C39.45,80.45 39.48,80.45 39.51,80.41 C39.94,79.86 40.41,80.26 40.44,80.3 C40.09,80.35 39.45,80.81 40.04,81.56 C40.07,81.59 40.1,81.63 40.11,81.57 C40.19,80.69 40.97,80.97 41.13,81.06 C41.24,81.12 41.79,81.28 42.16,80.84 C42.31,81.51 43.15,81.44 43.23,81.43 C43.29,81.43 43.29,81.39 43.24,81.35 C42.88,81.11 42.54,80.65 43.08,80.48 C43.08,80.48 43.8,81.13 44.38,80.42 C44.43,80.36 44.4,80.34 44.37,80.35 C44.3,80.37 43.48,80.47 43.54,79.65 C43.58,79.08 44,77.14 43.22,76.65 C43.17,76.62 43.15,76.59 43.2,76.57 C43.98,76.4 44.08,75.85 43.83,75.23 C43.8,75.15 43.75,75.17 43.75,75.22 C43.69,76.48 41.68,75.88 41.61,74.12 C42.69,74.4 44.54,74.02 44.54,72.26 C44.54,70.53 42.33,69.6 42.33,68.34 C42.33,68.13 42.32,67.26 43.35,67.26 C44.19,67.26 44.81,67.89 44.98,68.55 C44.99,68.58 45.02,68.59 45.05,68.55 C45.17,68.39 45.15,67.74 44.85,67.39 C44.82,67.36 44.85,67.29 44.92,67.33 C45.01,67.39 45.31,67.48 45.62,67.48 C46.31,67.48 46.68,67.1 46.68,66.47 C46.68,66.08 46.54,65.88 46.6,65.75 C46.63,65.69 46.55,65.65 46.52,65.72 C46.42,65.92 46.24,66.42 45.54,66.42 C45.53,66.42 44.09,66.42 43.85,66.42 C41.96,66.42 41.79,67.95 41.79,68.32 C41.79,69.87 43.76,70.54 43.76,72.11 C43.76,72.48 43.57,73.09 42.56,73.09 C42.14,73.09 41.7,72.97 41.44,72.86 C41.44,72.86 40.99,70.11 39.65,69.15 C39.65,69.15 38.09,69.91 36.54,69.07 C35.36,68.43 34.8,68 33.76,68.72 C32.72,69.44 31.82,70.21 31.71,70.19 L31.46,70.14 L31.46,63.95 C31.94,63.9 31.97,64.33 31.95,64.44 C31.92,64.58 31.77,64.7 32.09,65.19 C32.12,65.23 32.15,65.21 32.16,65.17 C32.17,65.05 32.24,64.84 32.4,64.84 C32.56,64.84 33.3,65.39 33.93,66.02 C33.93,66.02 34.29,64.93 35.16,64.59 C34.67,64.51 32.55,64 32.55,63.07 C32.55,62.76 32.2,62.69 31.97,62.71 C31.96,62.68 31.61,61.86 30.97,62.29 C30.94,62.31 30.94,62.36 30.98,62.37 C31.27,62.44 31.39,62.73 31.4,63.05 C30.78,62.86 28.15,62.12 25.03,62.12 C23.51,62.12 22.12,62.3 21.01,62.5 L21.01,64.64 L20.14,64.64 L20.14,62.67 L20.14,62.67 M14.38,84.65 C14.15,84.56 14,84.41 14,84.1 L14,82.77 C13.62,82.64 12.58,82.24 10.49,82.24 C8.76,82.24 8.22,82.63 8.19,82.77 L7.73,85.3 C7.73,85.3 8.43,84.66 10.94,84.82 C13.96,85.01 17.09,86.8 17.09,84.89 L17.09,83.77 C14.73,83.78 14.38,84.54 14.38,84.65 Z M32.97,83.78 L32.97,84.9 C32.97,86.8 36.1,85.02 39.12,84.83 C41.63,84.67 42.33,85.31 42.33,85.31 L41.87,82.77 C41.85,82.63 41.3,82.24 39.57,82.24 C37.49,82.24 36.45,82.64 36.06,82.77 L36.06,84.1 C36.06,84.4 35.91,84.55 35.68,84.65 C35.69,84.54 35.34,83.78 32.97,83.78 Z M25.03,82.63 C29.9,82.63 34.84,82.88 35.48,83.62 C35.53,83.68 35.55,83.62 35.55,83.57 L35.55,80.99 C35.55,80.24 30.45,79.8 25.02,79.8 C19.59,79.8 14.49,80.24 14.49,80.99 L14.49,83.57 C14.49,83.61 14.51,83.67 14.56,83.62 C15.23,82.89 20.17,82.63 25.03,82.63 Z M20.69,70.47 L20.2,70.34 L20.16,70.4 L19.59,70.15 C19.59,70.15 20.01,70.15 20.1,70.15 C20.15,70.15 20.15,70.12 20.13,70.1 C19.9,69.87 19.69,69.67 19.69,69.67 C19.69,69.67 19.92,69.76 20.25,69.88 C20.29,69.89 20.3,69.87 20.28,69.84 C20.12,69.61 19.9,69.29 19.9,69.29 C19.9,69.29 20.36,69.6 20.45,69.66 C20.48,69.68 20.5,69.66 20.49,69.63 C20.37,69.33 20.23,68.98 20.23,68.98 L20.73,69.46 C20.75,69.48 20.78,69.47 20.77,69.44 C20.72,69.21 20.63,68.79 20.63,68.79 L21,69.33 C21.02,69.36 21.05,69.35 21.05,69.32 C21.05,69.21 21.06,68.73 21.06,68.73 C21.06,68.73 21.22,69.09 21.29,69.27 C21.31,69.31 21.33,69.31 21.35,69.26 C21.37,69.2 21.54,68.8 21.54,68.8 L21.56,69.42 L21.48,69.44 L21.38,70.18 C22.11,70.01 23.03,68.75 23.73,68.75 C24.57,68.75 24.87,69.73 26.41,69.23 C26.8,69.81 26.94,70.31 27.09,71 C27.69,71.56 28.52,71.37 28.52,70.78 C28.52,69.98 27.65,69.83 27.65,68.99 C27.65,68.62 27.91,68.08 28.62,68.08 C29,68.08 29.55,68.24 29.87,68.24 C30.25,68.24 30.33,67.97 30.37,67.85 C30.4,67.77 30.51,67.79 30.5,67.86 C30.49,67.94 30.54,68.05 30.54,68.23 C30.54,68.76 29.77,68.83 29.68,68.76 C29.64,68.73 29.61,68.77 29.64,68.8 C29.76,68.89 29.73,69.21 29.59,69.41 C29.57,69.43 29.55,69.43 29.55,69.41 C29.47,69.03 29.02,68.56 28.63,68.56 C28.49,68.56 28.2,68.64 28.2,68.98 C28.2,69.45 29.15,69.89 29.15,70.87 C29.15,71.89 28.14,72.14 27.12,71.88 C27.15,72.85 28.6,73.42 28.63,72.73 C28.63,72.68 28.66,72.71 28.67,72.73 C28.88,73.03 28.79,73.25 28.51,73.37 C28.76,73.48 28.81,73.99 28.88,74.3 C28.99,74.76 29.47,74.5 29.5,74.49 C29.53,74.47 29.54,74.49 29.52,74.52 C29.34,74.99 28.85,74.81 28.85,74.81 C28.6,74.99 28.9,75.15 29.13,75.22 C29.16,75.23 29.16,75.25 29.14,75.27 C28.97,75.33 28.61,75.45 28.43,75.14 C28.3,75.46 28.03,75.45 27.93,75.45 C27.74,75.45 27.62,75.64 27.66,75.9 C27.66,75.92 27.65,75.93 27.63,75.92 C27.19,75.63 27.44,75.28 27.62,75.19 C27.59,75.17 27.28,75.04 27.15,75.4 C27.14,75.43 27.12,75.43 27.11,75.4 C26.92,74.88 27.34,74.73 27.64,74.86 C27.62,74.79 27.46,74.53 27.06,74.62 C27.04,74.63 27.03,74.62 27.04,74.59 C27.11,74.43 27.3,74.2 27.67,74.43 C27.86,74.55 28.18,74.38 28.21,74.36 C27.56,73.07 26.31,74.15 26.02,73.14 C26.01,73.12 25.99,73.1 25.97,73.16 C25.9,73.37 25.35,73.39 25.25,72.97 C25.24,72.94 25.25,72.93 25.28,72.95 C25.36,73.03 25.53,73.1 25.76,72.78 C25.91,72.56 25.93,72.27 25.93,72.08 C25.93,71.3 25.15,69.98 23.93,69.98 C23.16,69.98 22.33,70.28 21.71,70.73 L22.28,70.86 C22.23,71.44 21.67,71.78 21.16,71.63 L21.25,70.97 C21.16,71 20.94,71.08 20.82,71.25 C20.81,71.26 20.79,71.26 20.79,71.24 C20.69,70.86 21,70.67 21.09,70.63 C21.1,70.62 21.1,70.62 21.08,70.62 C20.8,70.61 20.65,70.81 20.6,70.88 C20.59,70.89 20.58,70.89 20.58,70.88 C20.61,70.8 20.56,70.61 20.69,70.47 Z M22.4,74.95 C22.18,75.22 21.99,74.96 21.7,74.96 C21.43,74.96 21.38,75.19 21.38,75.28 C21.38,75.3 21.37,75.3 21.36,75.29 C21.05,74.87 21.4,74.64 21.6,74.61 C21.57,74.58 21.27,74.38 21.08,74.66 C21.07,74.68 21.05,74.67 21.05,74.65 C21.04,74.13 21.45,74.09 21.73,74.32 C21.78,74.12 21.65,73.99 21.43,73.98 C21.4,73.98 21.4,73.96 21.41,73.95 C21.5,73.85 21.59,73.81 21.68,73.81 C21.97,73.81 22.01,74.18 22.2,74.18 C22.48,74.18 22.89,73.8 22.92,73.76 C22.91,73.74 22.64,73 22.69,72.56 C22.69,72.54 22.68,72.54 22.67,72.55 C22.53,72.63 22.19,72.62 22.19,72.2 C22.19,72.17 22.2,72.16 22.22,72.19 C22.37,72.4 22.62,72.16 22.74,72.02 C22.87,71.87 23.59,70.83 24.54,70.83 C24.75,70.83 25.02,70.95 25.24,71.1 C24.91,71.5 25.24,71.88 25.48,71.83 C25.51,71.82 25.51,71.85 25.49,71.86 C24.23,72.33 23.67,72.52 23.67,73.58 C23.67,74.13 23.86,74.44 24.18,74.36 C24.2,74.35 24.21,74.36 24.19,74.38 C24.07,74.52 23.94,74.57 23.83,74.57 C23.57,74.57 23.52,74.43 23.38,74.43 C23.24,74.43 22.77,74.71 22.77,74.94 C22.77,75.03 22.83,75.15 22.99,75.25 C23,75.26 22.99,75.27 22.99,75.27 C22.85,75.27 22.48,75.3 22.4,74.95 Z M25.71,64.7 C25.32,64.68 25.06,64.76 25.08,64.89 C25.27,65.09 25.52,65.07 25.71,64.7 Z M24.26,65.67 C24.54,65.6 24.84,65.63 24.88,65.64 C24.92,65.65 24.92,65.72 24.87,65.73 C24.29,65.8 24.26,66.07 23.89,66.07 C23.65,66.07 23.38,65.82 23.48,65.46 C23.49,65.41 23.53,65.41 23.54,65.46 C23.58,65.62 23.81,65.79 24.26,65.67 Z M16.73,78.53 C17.11,79.02 17.48,78.56 17.99,78.56 C18.24,78.56 18.54,78.64 18.59,79.14 C18.59,79.17 18.61,79.17 18.64,79.14 C19.19,78.39 18.56,77.97 18.2,77.91 C18.28,77.84 18.81,77.51 19.16,78 C19.18,78.03 19.22,78.02 19.22,77.98 C19.22,77.03 18.51,76.96 17.99,77.37 C17.89,77 18.17,76.76 18.53,76.76 C18.57,76.76 18.59,76.73 18.57,76.71 C17.93,76.03 17.46,76.89 17.35,77.02 C17.1,77.36 16.19,76.72 15.82,76.34 C15.82,76.34 16.62,75.5 16.62,74.73 C16.62,74.68 16.61,74.62 16.61,74.59 C16.61,74.57 16.62,74.56 16.64,74.57 C16.72,74.62 16.83,74.65 16.94,74.65 C17.12,74.65 17.47,74.59 17.47,73.94 C17.47,73.89 17.45,73.89 17.43,73.92 C17.33,74.06 17.23,74.09 17.15,74.09 C16.5,74.09 15.15,71.93 13.55,71.93 C13.13,71.93 12.34,72.23 11.95,72.66 C12.14,72.77 12.18,73.01 12.16,73.18 C12.13,73.45 11.91,73.59 11.69,73.65 C11.65,73.66 11.65,73.69 11.69,73.71 C12.5,74.02 13.96,74.57 14.3,74.86 C14.69,75.2 14.62,75.84 14.39,76.73 C14.17,77.58 13.7,77.47 13.52,77.44 C13.49,77.44 13.49,77.45 13.5,77.47 C13.71,77.73 13.96,77.82 14.18,77.82 C14.6,77.82 14.76,77.56 14.97,77.56 C15.33,77.56 16.1,78.08 16.1,78.48 C16.1,78.7 15.93,78.91 15.7,79.05 C15.69,79.06 15.69,79.08 15.71,79.08 C15.88,79.11 16.59,79.17 16.73,78.53 Z M34.36,79.08 C34.38,79.08 34.39,79.06 34.37,79.05 C34.15,78.9 33.97,78.7 33.97,78.48 C33.97,78.08 34.73,77.56 35.1,77.56 C35.32,77.56 35.47,77.82 35.89,77.82 C36.11,77.82 36.36,77.73 36.57,77.47 C36.59,77.45 36.58,77.43 36.55,77.44 C36.38,77.47 35.9,77.58 35.68,76.73 C35.45,75.84 35.37,75.2 35.77,74.86 C36.1,74.57 37.57,74.02 38.38,73.71 C38.42,73.69 38.42,73.66 38.38,73.65 C38.16,73.59 37.94,73.45 37.91,73.18 C37.89,73.01 37.93,72.78 38.12,72.66 C37.72,72.23 36.93,71.93 36.51,71.93 C34.91,71.93 33.56,74.09 32.91,74.09 C32.83,74.09 32.72,74.06 32.63,73.92 C32.61,73.89 32.59,73.89 32.59,73.94 C32.59,74.59 32.94,74.65 33.12,74.65 C33.22,74.65 33.34,74.62 33.42,74.57 C33.44,74.56 33.45,74.57 33.45,74.59 C33.45,74.62 33.44,74.68 33.44,74.73 C33.44,75.5 34.24,76.34 34.24,76.34 C33.88,76.72 32.97,77.35 32.71,77.02 C32.6,76.88 32.13,76.03 31.49,76.71 C31.47,76.74 31.48,76.76 31.53,76.76 C31.89,76.76 32.17,77 32.07,77.37 C31.55,76.96 30.84,77.03 30.84,77.98 C30.84,78.02 30.88,78.03 30.9,78 C31.24,77.51 31.78,77.84 31.85,77.91 C31.49,77.96 30.87,78.39 31.41,79.14 C31.43,79.17 31.45,79.17 31.46,79.14 C31.52,78.65 31.82,78.56 32.06,78.56 C32.56,78.56 32.93,79.02 33.32,78.53 C33.48,79.17 34.19,79.11 34.36,79.08 Z M21.45,66.61 C21.4,66.68 21.23,66.61 21.17,66.58 C21.16,66.57 21.15,66.58 21.16,66.59 C21.2,66.68 21.36,66.95 21.6,66.95 C21.71,66.95 21.87,66.89 21.91,66.81 C21.91,66.81 22.85,67.12 23.31,67.24 C23.13,67.48 23.02,67.77 22.99,68.08 C22.62,67.85 21.12,67.05 21.12,67.05 L20.66,67.69 C20.58,67.79 20.21,67.52 20.29,67.42 L20.64,66.93 C20.52,66.81 20.24,66.88 20.16,66.91 C20.15,66.91 20.14,66.91 20.15,66.89 C20.2,66.79 20.37,66.5 20.81,66.63 C20.81,66.36 20.41,66.45 20.3,66.48 C20.29,66.48 20.28,66.48 20.29,66.47 C20.4,66.35 20.73,66.09 21.09,66.31 L21.25,66.09 L20.93,65.75 L21.13,65.47 L21.36,65.77 L23.09,63.4 C23.13,63.34 23.48,63.24 23.6,63.21 C23.61,63.34 23.63,63.7 23.59,63.76 L21.89,66.15 L22.25,66.27 L22.05,66.55 L21.63,66.35 L21.45,66.61 Z M27.52,66.22 C27.52,66.44 27.65,66.76 27.94,66.66 C27.95,66.65 27.97,66.66 27.96,66.67 C27.92,66.91 27.48,67.13 27.29,66.85 C27.11,67.22 27.16,67.57 27.53,67.77 C27.55,67.78 27.55,67.81 27.53,67.83 C27.3,67.99 26.95,67.96 26.79,67.64 C26.48,67.87 26.52,68.37 26.71,68.54 C26.71,68.54 25.85,69.05 25.07,68.69 C24.55,68.44 24.13,68.12 23.46,68.18 C23.55,67.24 24.02,67 24.88,66.86 C25.57,66.75 25.65,66.43 25.56,66.19 C25.33,66.13 24.9,66.34 24.9,66.34 C24.82,66.21 24.93,66.08 24.93,66.08 C24.89,66.03 24.87,65.86 24.87,65.86 C25.35,65.86 25.44,65.75 25.44,65.75 C25.53,65.25 25.02,65.2 24.63,65.47 C24.45,65.31 24.48,65.1 24.48,65.1 C24.43,65.07 24.39,64.99 24.39,64.95 C24.39,64.83 24.96,64.51 25.11,64.47 C25.15,64.3 25.35,64.07 25.96,64.13 C26.03,63.97 25.91,63.38 25.84,63.23 C25.82,63.18 25.85,63.16 25.9,63.19 C26.11,63.32 26.32,63.82 26.47,63.83 C26.47,63.83 27.15,63.47 27.18,63.49 C27.21,63.51 27.31,64.27 27.31,64.27 C27.4,64.38 27.93,64.27 28.16,64.37 C28.22,64.4 28.22,64.44 28.16,64.45 C27.99,64.48 27.44,64.72 27.35,64.87 C27.67,65.34 27.52,66.03 27.52,66.22 Z" id="Shape" fill="#FFFFFF"></path>
            </g>
        </g>
    </g>
</svg>